<?xml version="1.0" standalone="no"?>
<!DOCTYPE svg PUBLIC "-//W3C//DTD SVG 20010904//EN"
 "http://www.w3.org/TR/2001/REC-SVG-20010904/DTD/svg10.dtd">
<svg version="1.0" xmlns="http://www.w3.org/2000/svg"
 width="375.000000pt" height="375.000000pt" viewBox="0 0 375.000000 375.000000"
 preserveAspectRatio="xMidYMid meet">
<metadata>
Created by potrace 1.14, written by Peter Selinger 2001-2017
</metadata>
<g transform="translate(0.000000,375.000000) scale(0.100000,-0.100000)"
fill="#000000" stroke="none">
<path d="M35 3622 l-30 -3 0 -1752 0 -1752 368 -3 367 -2 1 27 c0 16 1 511 1
1100 1 891 3 1070 14 1055 7 -9 14 -20 14 -24 0 -4 23 -56 51 -115 28 -59 64
-135 79 -168 15 -33 47 -100 70 -150 23 -49 57 -121 75 -160 18 -38 51 -108
73 -155 93 -199 121 -259 157 -335 21 -44 50 -107 65 -140 15 -33 49 -105 75
-160 26 -55 62 -131 80 -170 18 -38 42 -91 55 -117 l22 -47 307 0 308 1 138
297 c76 163 169 361 207 440 37 79 68 145 68 146 0 2 24 54 54 117 55 116 100
210 168 358 22 47 53 112 68 145 15 33 48 104 73 158 25 53 47 97 49 97 2 0 3
-494 3 -1097 l0 -1098 368 -3 367 -2 0 1755 c0 965 -3 1755 -7 1756 -10 1
-821 1 -851 0 -17 -1 -27 -12 -41 -43 -10 -24 -48 -105 -85 -181 -36 -76 -66
-139 -66 -141 0 -2 -34 -74 -75 -161 -41 -86 -75 -158 -75 -160 0 -1 -31 -67
-69 -146 -38 -79 -80 -169 -94 -199 -61 -133 -174 -374 -228 -488 -32 -68 -59
-125 -59 -127 0 -3 -61 -133 -163 -345 l-59 -125 -24 50 c-76 163 -129 277
-154 330 -38 81 -104 223 -150 320 -21 44 -52 112 -70 150 -53 114 -104 222
-169 359 -33 70 -61 129 -61 131 0 1 -29 63 -64 136 -35 74 -75 159 -89 189
-14 30 -48 103 -75 162 -28 59 -70 147 -93 197 -33 72 -46 91 -63 92 -76 2
-807 3 -831 1z"/>
</g>
</svg>
